<?xml version="1.0" encoding="UTF-8" standalone="no"?>
<!-- Created with Inkscape (http://www.inkscape.org/) -->

<svg
   width="800"
   height="800"
   viewBox="0 0 211.66666 211.66667"
   version="1.1"
   id="svg5"
   xml:space="preserve"
   inkscape:version="1.2.2 (732a01da63, 2022-12-09)"
   sodipodi:docname="Spotlight_logo.svg"
   xmlns:inkscape="http://www.inkscape.org/namespaces/inkscape"
   xmlns:sodipodi="http://sodipodi.sourceforge.net/DTD/sodipodi-0.dtd"
   xmlns="http://www.w3.org/2000/svg"
   xmlns:svg="http://www.w3.org/2000/svg"><sodipodi:namedview
     id="namedview7"
     pagecolor="#ffffff"
     bordercolor="#000000"
     borderopacity="0.25"
     inkscape:showpageshadow="2"
     inkscape:pageopacity="0.0"
     inkscape:pagecheckerboard="0"
     inkscape:deskcolor="#d1d1d1"
     inkscape:document-units="mm"
     showgrid="false"
     inkscape:zoom="0.52221046"
     inkscape:cx="-50.745824"
     inkscape:cy="562.9914"
     inkscape:window-width="1920"
     inkscape:window-height="1009"
     inkscape:window-x="-8"
     inkscape:window-y="-8"
     inkscape:window-maximized="1"
     inkscape:current-layer="layer1" /><defs
     id="defs2" /><g
     inkscape:label="Layer 1"
     inkscape:groupmode="layer"
     id="layer1"><g
       id="g243"
       transform="matrix(1.0856525,0,0,1.0856525,5.6466127,-54.183224)"><path
         id="rect402"
         style="fill:#241c1c;fill-opacity:0.996951;stroke:#000000;stroke-width:0;stroke-linecap:round;stroke-linejoin:round;stroke-opacity:0.993902"
         d="m 92.528759,-46.519125 a 83.18391,83.18391 0 0 0 -0.57405,3.316148 83.18391,83.18391 0 0 0 -0.60577,6.503406 83.18391,83.18391 0 0 0 -0.09402,6.530602 83.18391,83.18391 0 0 0 0.418894,6.518253 83.18391,83.18391 0 0 0 0.929021,6.465042 83.18391,83.18391 0 0 0 1.433379,6.372406 83.18391,83.18391 0 0 0 1.928969,6.2406271 83.18391,83.18391 0 0 0 2.41255,6.0693009 83.18391,83.18391 0 0 0 2.881408,5.86171 83.18391,83.18391 0 0 0 3.33228,5.617448 83.18391,83.18391 0 0 0 3.76293,5.338865 83.18391,83.18391 0 0 0 4.16988,5.027178 83.18391,83.18391 0 0 0 4.55179,4.684027 83.18391,83.18391 0 0 0 4.90525,4.312939 83.18391,83.18391 0 0 0 5.22865,3.914866 83.18391,83.18391 0 0 0 5.51904,3.492401 83.18391,83.18391 0 0 0 5.77671,3.048545 83.18391,83.18391 0 0 0 5.99799,2.586134 83.18391,83.18391 0 0 0 6.18199,2.107033 83.18391,83.18391 0 0 0 6.32882,1.615864 83.18391,83.18391 0 0 0 6.43594,1.114287 83.18391,83.18391 0 0 0 6.50318,0.606236 83.18391,83.18391 0 0 0 6.53083,0.09355 83.18391,83.18391 0 0 0 6.51825,-0.418895 83.18391,83.18391 0 0 0 6.46504,-0.92902 83.18391,83.18391 0 0 0 6.37241,-1.433379 83.18391,83.18391 0 0 0 6.2404,-1.928503 83.18391,83.18391 0 0 0 6.0693,-2.41255 83.18391,83.18391 0 0 0 5.86171,-2.881403 83.18391,83.18391 0 0 0 5.61767,-3.332752 83.18391,83.18391 0 0 0 5.33865,-3.762461 83.18391,83.18391 0 0 0 5.0274,-4.170347 83.18391,83.18391 0 0 0 4.68449,-4.551568 83.18391,83.18391 0 0 0 4.31294,-4.905247 83.18391,83.18391 0 0 0 3.91418,-5.228409 83.18391,83.18391 0 0 0 3.49262,-5.5195098 83.18391,83.18391 0 0 0 3.04855,-5.776705 83.18391,83.18391 0 0 0 0.92927,-2.0101241 83.18391,83.18391 0 0 0 0.87546,-2.03415541 83.18391,83.18391 0 0 0 0.82099,-2.05678819 83.18391,83.18391 0 0 0 0.76584,-2.0780226 83.18391,83.18391 0 0 0 0.71048,-2.0976355 83.18391,83.18391 0 0 0 0.65425,-2.1153839 83.18391,83.18391 0 0 0 0.59778,-2.1326665 83.18391,83.18391 0 0 0 0.54066,-2.147394 83.18391,83.18391 0 0 0 0.4831,-2.161191 83.18391,83.18391 0 0 0 0.42603,-2.173608 83.18391,83.18391 0 0 0 0.36784,-2.183696 83.18391,83.18391 0 0 0 0.3092,-2.19285 83.18391,83.18391 0 0 0 0.25082,-2.200161 83.18391,83.18391 0 0 0 0.19248,-2.206315 83.18391,83.18391 0 0 0 0.13322,-2.210606 83.18391,83.18391 0 0 0 0.0745,-2.213518 83.18391,83.18391 0 0 0 0.016,-2.214585 83.18391,83.18391 0 0 0 -0.0439,-2.214011 83.18391,83.18391 0 0 0 -0.10188,-2.212544 83.18391,83.18391 0 0 0 -0.1612,-2.208282 83.18391,83.18391 0 0 0 -0.22006,-2.203794 83.18391,83.18391 0 0 0 -0.2782,-2.197241 83.18391,83.18391 0 0 0 -0.33723,-2.188823 83.18391,83.18391 0 0 0 -0.0966,-0.533182 z"
         transform="rotate(64.426952)" /><path
         id="path1012"
         style="fill:#241c1c;fill-opacity:0.996951;stroke:#000000;stroke-width:0;stroke-linecap:round;stroke-linejoin:round;stroke-opacity:0.993902"
         d="m 74.445361,52.894092 a 96.624791,96.624791 0 0 0 -1.242134,0.33251 96.624791,96.624791 0 0 0 -6.820543,2.386534 96.624791,96.624791 0 0 0 -6.622892,2.889395 96.624791,96.624791 0 0 0 -6.388663,3.376419 96.624791,96.624791 0 0 0 -6.117849,3.844881 96.624791,96.624791 0 0 0 -5.814278,4.290413 96.624791,96.624791 0 0 0 -5.476854,4.713556 96.624791,96.624791 0 0 0 -5.109401,5.1094 96.624791,96.624791 0 0 0 -4.713557,5.476855 96.624791,96.624791 0 0 0 -4.290412,5.814277 96.624791,96.624791 0 0 0 -3.84488,6.117846 96.624791,96.624791 0 0 0 -3.376421,6.388662 96.624791,96.624791 0 0 0 -2.889393,6.6229 96.624791,96.624791 0 0 0 -2.3865346,6.82055 96.624791,96.624791 0 0 0 -1.8700267,6.97941 96.624791,96.624791 0 0 0 -1.3436905,7.10009 96.624791,96.624791 0 0 0 -0.8086113,7.18037 96.624791,96.624791 0 0 0 -0.2702673,7.22074 96.624791,96.624791 0 0 0 0.2702676,7.22076 96.624791,96.624791 0 0 0 0.808612,7.18035 96.624791,96.624791 0 0 0 1.3436874,7.10009 96.624791,96.624791 0 0 0 1.8700299,6.97943 96.624791,96.624791 0 0 0 2.3865315,6.82054 96.624791,96.624791 0 0 0 2.889395,6.62289 96.624791,96.624791 0 0 0 3.37642,6.38867 96.624791,96.624791 0 0 0 3.844882,6.11785 96.624791,96.624791 0 0 0 4.29041,5.81428 96.624791,96.624791 0 0 0 4.713556,5.47685 96.624791,96.624791 0 0 0 5.109402,5.1094 96.624791,96.624791 0 0 0 5.476853,4.71355 96.624791,96.624791 0 0 0 5.814278,4.29042 96.624791,96.624791 0 0 0 6.117851,3.84488 96.624791,96.624791 0 0 0 6.388663,3.37642 96.624791,96.624791 0 0 0 6.622893,2.8894 96.624791,96.624791 0 0 0 6.820543,2.38653 96.624791,96.624791 0 0 0 6.979427,1.87003 96.624791,96.624791 0 0 0 7.100088,1.34368 96.624791,96.624791 0 0 0 7.180356,0.80863 96.624791,96.624791 0 0 0 7.220761,0.27025 96.624791,96.624791 0 0 0 2.48808,-0.0322 96.624791,96.624791 0 0 0 2.48591,-0.096 96.624791,96.624791 0 0 0 2.48317,-0.15998 96.624791,96.624791 0 0 0 2.47772,-0.22385 96.624791,96.624791 0 0 0 2.47171,-0.28774 96.624791,96.624791 0 0 0 2.46298,-0.35108 96.624791,96.624791 0 0 0 2.45368,-0.41441 96.624791,96.624791 0 0 0 2.44169,-0.47774 96.624791,96.624791 0 0 0 2.42857,-0.53998 96.624791,96.624791 0 0 0 2.41384,-0.60278 96.624791,96.624791 0 0 0 2.398,-0.66447 96.624791,96.624791 0 0 0 2.37997,-0.72618 96.624791,96.624791 0 0 0 2.36034,-0.78732 96.624791,96.624791 0 0 0 2.33902,-0.84738 96.624791,96.624791 0 0 0 2.31665,-0.90744 96.624791,96.624791 0 0 0 2.29263,-0.96695 96.624791,96.624791 0 0 0 2.26697,-1.02592 96.624791,96.624791 0 0 0 2.23965,-1.0838 96.624791,96.624791 0 0 0 2.21073,-1.14058 96.624791,96.624791 0 0 0 2.18124,-1.1979 96.624791,96.624791 0 0 0 2.14957,-1.25305 96.624791,96.624791 0 0 0 2.11627,-1.30821 96.624791,96.624791 0 0 0 2.08187,-1.36225 96.624791,96.624791 0 0 0 1.14877,-0.79442 l -3.84269,-8.02991 a 87.888845,87.888845 0 0 1 -0.4641,0.33523 87.888845,87.888845 0 0 1 -1.93227,1.31967 87.888845,87.888845 0 0 1 -1.96721,1.26725 87.888845,87.888845 0 0 1 -1.99997,1.21483 87.888845,87.888845 0 0 1 -2.03109,1.16078 87.888845,87.888845 0 0 1 -2.06222,1.10619 87.888845,87.888845 0 0 1 -2.09007,1.05157 87.888845,87.888845 0 0 1 -2.11789,0.99481 87.888845,87.888845 0 0 1 -2.14357,0.93855 87.888845,87.888845 0 0 1 -2.16759,0.88125 87.888845,87.888845 0 0 1 -2.19053,0.82279 87.888845,87.888845 0 0 1 -2.21127,0.7644 87.888845,87.888845 0 0 1 -2.23093,0.70543 87.888845,87.888845 0 0 1 -2.24894,0.64536 87.888845,87.888845 0 0 1 -2.26587,0.5853 87.888845,87.888845 0 0 1 -2.28007,0.52525 87.888845,87.888845 0 0 1 -2.29317,0.46409 87.888845,87.888845 0 0 1 -2.30518,0.40294 87.888845,87.888845 0 0 1 -2.31446,0.34125 87.888845,87.888845 0 0 1 -2.3232,0.27955 87.888845,87.888845 0 0 1 -2.32976,0.21785 87.888845,87.888845 0 0 1 -2.33466,0.15561 87.888845,87.888845 0 0 1 -2.33794,0.0934 87.888845,87.888845 0 0 1 -2.33958,0.0312 87.888845,87.888845 0 0 1 -6.895891,-0.27081 87.888845,87.888845 0 0 1 -6.8533,-0.81135 87.888845,87.888845 0 0 1 -6.768129,-1.34587 87.888845,87.888845 0 0 1 -6.642003,-1.87331 87.888845,87.888845 0 0 1 -6.474383,-2.38871 87.888845,87.888845 0 0 1 -6.267451,-2.88939 87.888845,87.888845 0 0 1 -6.020666,-3.37207 87.888845,87.888845 0 0 1 -5.738385,-3.83396 87.888845,87.888845 0 0 1 -5.419525,-4.27239 87.888845,87.888845 0 0 1 -5.067359,-4.68407 87.888845,87.888845 0 0 1 -4.68407,-5.0679 87.888845,87.888845 0 0 1 -4.272397,-5.41953 87.888845,87.888845 0 0 1 -3.83396,-5.73784 87.888845,87.888845 0 0 1 -3.372051,-6.0212 87.888845,87.888845 0 0 1 -2.889396,-6.26691 87.888845,87.888845 0 0 1 -2.388172,-6.47439 87.888845,87.888845 0 0 1 -1.873304,-6.642 87.888845,87.888845 0 0 1 -1.346417,-6.76868 87.888845,87.888845 0 0 1 -0.811342,-6.85274 87.888845,87.888845 0 0 1 -0.270814,-6.89589 87.888845,87.888845 0 0 1 0.270811,-6.8959 87.888845,87.888845 0 0 1 0.811347,-6.85275 87.888845,87.888845 0 0 1 1.346419,-6.76867 87.888845,87.888845 0 0 1 1.8733,-6.642 87.888845,87.888845 0 0 1 2.388174,-6.4744 87.888845,87.888845 0 0 1 2.889394,-6.2669 87.888845,87.888845 0 0 1 3.372051,-6.021203 87.888845,87.888845 0 0 1 3.833963,-5.737839 87.888845,87.888845 0 0 1 4.272393,-5.419529 87.888845,87.888845 0 0 1 4.684072,-5.06736 87.888845,87.888845 0 0 1 5.067906,-4.684618 87.888845,87.888845 0 0 1 5.419526,-4.272394 87.888845,87.888845 0 0 1 5.737838,-3.833963 87.888845,87.888845 0 0 1 6.021208,-3.372051 87.888845,87.888845 0 0 1 6.266906,-2.888848 87.888845,87.888845 0 0 1 6.474384,-2.388719 87.888845,87.888845 0 0 1 3.422283,-0.965315 z" /><path
         id="path7196"
         style="fill:#edc191;fill-opacity:0.179878;stroke:#000000;stroke-width:0;stroke-linecap:round;stroke-linejoin:round;stroke-dasharray:none;stroke-opacity:0.993902"
         d="m 103.10539,68.268908 a 73.849237,73.849237 0 0 0 -73.849374,73.849372 73.849237,73.849237 0 0 0 73.849374,73.84938 73.849237,73.849237 0 0 0 73.84938,-73.84938 73.849237,73.849237 0 0 0 -73.84938,-73.849372 z m 0,5.939878 a 67.909621,67.909621 0 0 1 67.90949,67.909494 67.909621,67.909621 0 0 1 -67.90949,67.90949 67.909621,67.909621 0 0 1 -67.909496,-67.90949 67.909621,67.909621 0 0 1 67.909496,-67.909494 z" /><path
         style="fill:#d6bb9f;fill-opacity:1;stroke:#000000;stroke-width:1.5;stroke-linecap:round;stroke-linejoin:round;stroke-dasharray:none;stroke-opacity:0.993902"
         d="m 71.375304,178.2263 -30.8987,15.44935 c 0,0 22.083342,49.1443 87.392596,32.05164 59.03034,-15.44935 50.21614,-79.43896 6.68702,-91.77375 C 98.915313,123.85402 81.290558,122.42417 80.137622,110.20304 78.984684,97.981918 91.129017,92.091348 101.35166,91.986649 c 25.62726,-0.262469 30.81835,12.497661 33.96627,18.025361 l 30.36758,-15.027726 c 0,0 -10.8376,-26.517541 -40.81396,-33.435161 C 94.895209,54.631504 74.142351,60.396187 59.154174,75.384362 44.166,90.372538 40.937777,112.04774 46.933048,126.34415 c 5.99527,14.29642 17.755224,28.13166 54.879782,33.20458 37.12455,5.07292 29.51517,17.98581 29.74576,20.98344 0.16015,2.0819 -4.03818,14.9812 -26.74813,15.91053 -15.842443,0.64831 -31.850465,-15.77939 -33.435156,-18.2164 z"
         id="path412"
         sodipodi:nodetypes="ccssssccssssssc" /><path
         id="path1015"
         style="fill:#edc191;fill-opacity:0.179878;stroke:#000000;stroke-width:0;stroke-linecap:round;stroke-linejoin:round;stroke-dasharray:none;stroke-opacity:0.993902"
         d="m 103.10539,80.428756 a 61.689412,61.689412 0 0 0 -61.689526,61.689524 61.689412,61.689412 0 0 0 61.689526,61.68953 61.689412,61.689412 0 0 0 61.68953,-61.68953 61.689412,61.689412 0 0 0 -61.68953,-61.689524 z m 0,4.961833 a 56.727798,56.727798 0 0 1 56.72769,56.727691 56.727798,56.727798 0 0 1 -56.72769,56.72769 56.727798,56.727798 0 0 1 -56.727693,-56.72769 56.727798,56.727798 0 0 1 56.727693,-56.727691 z" /></g></g></svg>
